<svg width="111" height="90" viewBox="0 0 111 90" fill="none" xmlns="http://www.w3.org/2000/svg">
<circle cx="69.5" cy="41.5" r="39.5" fill="white" stroke="black" stroke-width="4"/>
<mask id="path-2-inside-1_39_12" fill="white">
<path fill-rule="evenodd" clip-rule="evenodd" d="M64.092 88.1749C60.7818 89.3565 57.2161 90 53.5 90C49.9633 90 46.5627 89.4171 43.3891 88.3422C39.7205 89.411 35.7066 90 31.5 90C14.103 90 0 79.9264 0 67.5C0 56.7173 10.6188 47.7062 24.7942 45.5109C29.7419 34.5939 40.7341 27 53.5 27C62.0829 27 69.864 30.4327 75.5455 36C92.9215 36.0211 107 48.1013 107 63C107 77.9117 92.897 90 75.5 90C71.4766 90 67.6293 89.3534 64.092 88.1749Z"/>
</mask>
<path fill-rule="evenodd" clip-rule="evenodd" d="M64.092 88.1749C60.7818 89.3565 57.2161 90 53.5 90C49.9633 90 46.5627 89.4171 43.3891 88.3422C39.7205 89.411 35.7066 90 31.5 90C14.103 90 0 79.9264 0 67.5C0 56.7173 10.6188 47.7062 24.7942 45.5109C29.7419 34.5939 40.7341 27 53.5 27C62.0829 27 69.864 30.4327 75.5455 36C92.9215 36.0211 107 48.1013 107 63C107 77.9117 92.897 90 75.5 90C71.4766 90 67.6293 89.3534 64.092 88.1749Z" fill="white"/>
<path d="M64.092 88.1749L65.3563 84.38L64.047 83.9438L62.7472 84.4077L64.092 88.1749ZM43.3891 88.3422L44.6723 84.5537L43.4794 84.1496L42.2703 84.5019L43.3891 88.3422ZM24.7942 45.5109L25.4064 49.4638L27.5444 49.1327L28.4375 47.1621L24.7942 45.5109ZM75.5455 36L72.7459 38.857L73.9103 39.9981L75.5406 40L75.5455 36ZM53.5 94C57.6808 94 61.7011 93.2756 65.4367 91.9421L62.7472 84.4077C59.8626 85.4375 56.7514 86 53.5 86V94ZM42.1059 92.1308C45.6875 93.3439 49.5212 94 53.5 94V86C50.4054 86 47.438 85.4904 44.6723 84.5537L42.1059 92.1308ZM31.5 94C36.0776 94 40.4687 93.3594 44.5079 92.1826L42.2703 84.5019C38.9724 85.4627 35.3355 86 31.5 86V94ZM-4 67.5C-4 75.3403 0.455851 82.061 6.90118 86.6648C13.3542 91.2741 22.0639 94 31.5 94V86C23.5391 86 16.4988 83.6891 11.5511 80.155C6.59566 76.6154 4 72.0861 4 67.5H-4ZM24.1821 41.558C9.13032 43.889 -4 53.8262 -4 67.5H4C4 59.6085 12.1072 51.5234 25.4064 49.4638L24.1821 41.558ZM53.5 23C39.1069 23 26.7229 31.5653 21.1509 43.8597L28.4375 47.1621C32.7609 37.6226 42.3613 31 53.5 31V23ZM78.3451 33.1431C71.9463 26.8727 63.1714 23 53.5 23V31C60.9944 31 67.7818 33.9926 72.7459 38.857L78.3451 33.1431ZM75.5406 40C91.3094 40.0191 103 50.8641 103 63H111C111 45.3385 94.5337 32.023 75.5503 32L75.5406 40ZM103 63C103 75.1463 91.2885 86 75.5 86V94C94.5054 94 111 80.6771 111 63H103ZM75.5 86C71.9053 86 68.4851 85.4224 65.3563 84.38L62.8276 91.9698C66.7736 93.2845 71.0478 94 75.5 94V86Z" fill="black" mask="url(#path-2-inside-1_39_12)"/>
</svg>
